<mxfile host="65bd71144e">
    <diagram id="3_yrct7u-ztVPtnTNLHC" name="Page-1">
        <mxGraphModel dx="1627" dy="1952" grid="1" gridSize="27" guides="1" tooltips="1" connect="1" arrows="1" fold="1" page="0" pageScale="1" pageWidth="850" pageHeight="1100" background="none" math="0" shadow="0">
            <root>
                <mxCell id="0"/>
                <mxCell id="1" parent="0"/>
                <mxCell id="24" value="&lt;font style=&quot;font-size: 32px;&quot;&gt;context&lt;/font&gt;" style="ellipse;whiteSpace=wrap;html=1;aspect=fixed;" vertex="1" parent="1">
                    <mxGeometry x="-980" y="-1270" width="200" height="200" as="geometry"/>
                </mxCell>
                <mxCell id="26" value="" style="endArrow=classic;html=1;fontSize=32;" edge="1" parent="1" source="24" target="27">
                    <mxGeometry width="50" height="50" relative="1" as="geometry">
                        <mxPoint x="-729" y="-1111" as="sourcePoint"/>
                        <mxPoint x="-729" y="-1296" as="targetPoint"/>
                    </mxGeometry>
                </mxCell>
                <mxCell id="27" value="courses" style="shape=parallelogram;perimeter=parallelogramPerimeter;whiteSpace=wrap;html=1;fixedSize=1;fontSize=32;" vertex="1" parent="1">
                    <mxGeometry x="-789" y="-1377" width="168" height="111" as="geometry"/>
                </mxCell>
                <mxCell id="28" value="" style="endArrow=classic;html=1;fontSize=32;exitX=1;exitY=1;exitDx=0;exitDy=0;" edge="1" parent="1" source="24" target="29">
                    <mxGeometry width="50" height="50" relative="1" as="geometry">
                        <mxPoint x="-729" y="-1111" as="sourcePoint"/>
                        <mxPoint x="-729" y="-1080" as="targetPoint"/>
                    </mxGeometry>
                </mxCell>
                <mxCell id="29" value="set courses" style="shape=parallelogram;perimeter=parallelogramPerimeter;whiteSpace=wrap;html=1;fixedSize=1;fontSize=32;" vertex="1" parent="1">
                    <mxGeometry x="-789" y="-1110" width="222" height="111" as="geometry"/>
                </mxCell>
                <mxCell id="30" value="" style="endArrow=classic;html=1;fontSize=32;exitX=0.002;exitY=0.405;exitDx=0;exitDy=0;exitPerimeter=0;" edge="1" parent="1" source="24">
                    <mxGeometry width="50" height="50" relative="1" as="geometry">
                        <mxPoint x="-783" y="-1111" as="sourcePoint"/>
                        <mxPoint x="-1081.4814814814815" y="-1215" as="targetPoint"/>
                    </mxGeometry>
                </mxCell>
            </root>
        </mxGraphModel>
    </diagram>
</mxfile>